<svg width="550" height="200" viewBox="0 0 550 200" fill="none" xmlns="http://www.w3.org/2000/svg">
<line x1="0.5" y1="10.5" x2="549.5" y2="10.5" stroke="#F2F4F7" stroke-linecap="round"/>
<line x1="0.5" y1="45" x2="549.5" y2="45" stroke="#F2F4F7" stroke-linecap="round"/>
<line x1="0.5" y1="77" x2="549.5" y2="77" stroke="#F2F4F7" stroke-linecap="round"/>
<line x1="0.5" y1="109" x2="549.5" y2="109" stroke="#F2F4F7" stroke-linecap="round"/>
<line x1="0.5" y1="141" x2="549.5" y2="141" stroke="#F2F4F7" stroke-linecap="round"/>
<line x1="0.5" y1="173" x2="549.5" y2="173" stroke="#F2F4F7" stroke-linecap="round"/>
<path d="M28.7493 186.273H29.8061V192.511C29.8061 193.068 29.7038 193.541 29.4993 193.93C29.2947 194.32 29.0064 194.615 28.6342 194.817C28.2621 195.018 27.8232 195.119 27.3175 195.119C26.8402 195.119 26.4155 195.033 26.0433 194.859C25.6712 194.683 25.3786 194.433 25.1655 194.109C24.9524 193.786 24.8459 193.401 24.8459 192.955H25.8857C25.8857 193.202 25.9467 193.418 26.0689 193.602C26.1939 193.784 26.3643 193.926 26.5803 194.028C26.7962 194.131 27.0419 194.182 27.3175 194.182C27.6214 194.182 27.88 194.118 28.093 193.99C28.3061 193.862 28.468 193.675 28.5788 193.428C28.6925 193.178 28.7493 192.872 28.7493 192.511V186.273ZM33.7138 195.153C33.299 195.153 32.9226 195.075 32.5845 194.919C32.2464 194.76 31.978 194.531 31.7791 194.233C31.5803 193.932 31.4808 193.568 31.4808 193.142C31.4808 192.767 31.5547 192.463 31.7024 192.23C31.8501 191.994 32.0476 191.81 32.2947 191.676C32.5419 191.543 32.8146 191.443 33.1129 191.378C33.4141 191.31 33.7166 191.256 34.0206 191.216C34.4183 191.165 34.7408 191.126 34.9879 191.101C35.2379 191.072 35.4197 191.026 35.5334 190.96C35.6499 190.895 35.7081 190.781 35.7081 190.619V190.585C35.7081 190.165 35.593 189.838 35.3629 189.605C35.1357 189.372 34.7905 189.256 34.3274 189.256C33.8473 189.256 33.4709 189.361 33.1982 189.571C32.9254 189.781 32.7337 190.006 32.6229 190.244L31.6683 189.903C31.8388 189.506 32.0661 189.196 32.3501 188.974C32.6371 188.75 32.9496 188.594 33.2876 188.506C33.6286 188.415 33.9638 188.369 34.2933 188.369C34.5036 188.369 34.745 188.395 35.0178 188.446C35.2933 188.494 35.5589 188.595 35.8146 188.749C36.0732 188.902 36.2876 189.134 36.4581 189.443C36.6286 189.753 36.7138 190.168 36.7138 190.688V195H35.7081V194.114H35.657C35.5888 194.256 35.4751 194.408 35.3161 194.57C35.157 194.732 34.9453 194.869 34.6811 194.983C34.4169 195.097 34.0945 195.153 33.7138 195.153ZM33.8672 194.25C34.2649 194.25 34.6001 194.172 34.8729 194.016C35.1484 193.859 35.3558 193.658 35.495 193.411C35.6371 193.163 35.7081 192.903 35.7081 192.631V191.71C35.6655 191.761 35.5717 191.808 35.4268 191.851C35.2848 191.891 35.12 191.926 34.9325 191.957C34.7479 191.986 34.5675 192.011 34.3913 192.034C34.218 192.054 34.0774 192.071 33.9695 192.085C33.7081 192.119 33.4638 192.175 33.2365 192.251C33.0121 192.325 32.8303 192.437 32.6911 192.588C32.5547 192.736 32.4865 192.937 32.4865 193.193C32.4865 193.543 32.6158 193.807 32.8743 193.986C33.1357 194.162 33.4666 194.25 33.8672 194.25ZM39.555 191.062V195H38.5494V188.455H39.521V189.477H39.6062C39.7596 189.145 39.9925 188.878 40.305 188.676C40.6175 188.472 41.021 188.369 41.5153 188.369C41.9585 188.369 42.3462 188.46 42.6786 188.642C43.011 188.821 43.2695 189.094 43.4542 189.46C43.6388 189.824 43.7312 190.284 43.7312 190.841V195H42.7255V190.909C42.7255 190.395 42.592 189.994 42.3249 189.707C42.0579 189.418 41.6914 189.273 41.2255 189.273C40.9045 189.273 40.6175 189.342 40.3647 189.482C40.1147 189.621 39.9173 189.824 39.7724 190.091C39.6275 190.358 39.555 190.682 39.555 191.062Z" fill="#475467"/>
<path d="M68.2385 195V186.273H73.4714V187.21H69.2953V190.159H73.0794V191.097H69.2953V195H68.2385ZM77.4089 195.136C76.7782 195.136 76.2342 194.997 75.7768 194.719C75.3223 194.438 74.9714 194.045 74.7243 193.543C74.4799 193.037 74.3578 192.449 74.3578 191.778C74.3578 191.108 74.4799 190.517 74.7243 190.006C74.9714 189.491 75.3152 189.091 75.7555 188.804C76.1987 188.514 76.7157 188.369 77.3066 188.369C77.6475 188.369 77.9842 188.426 78.3166 188.54C78.649 188.653 78.9515 188.838 79.2243 189.094C79.497 189.347 79.7143 189.682 79.8762 190.099C80.0382 190.517 80.1191 191.031 80.1191 191.642V192.068H75.0737V191.199H79.0964C79.0964 190.83 79.0225 190.5 78.8748 190.21C78.7299 189.92 78.5225 189.692 78.2527 189.524C77.9856 189.357 77.6703 189.273 77.3066 189.273C76.9061 189.273 76.5595 189.372 76.2669 189.571C75.9771 189.767 75.7541 190.023 75.5978 190.338C75.4416 190.653 75.3635 190.991 75.3635 191.352V191.932C75.3635 192.426 75.4487 192.845 75.6191 193.189C75.7924 193.53 76.0325 193.79 76.3393 193.969C76.6461 194.145 77.0027 194.233 77.4089 194.233C77.6731 194.233 77.9118 194.196 78.1248 194.122C78.3407 194.045 78.5268 193.932 78.6831 193.781C78.8393 193.628 78.96 193.437 79.0453 193.21L80.0169 193.483C79.9146 193.812 79.7427 194.102 79.5012 194.352C79.2598 194.599 78.9615 194.793 78.6064 194.932C78.2512 195.068 77.8521 195.136 77.4089 195.136ZM81.7853 195V186.273H82.791V189.494H82.8762C82.9501 189.381 83.0524 189.236 83.1831 189.06C83.3166 188.881 83.5069 188.722 83.7541 188.582C84.0041 188.44 84.3422 188.369 84.7683 188.369C85.3194 188.369 85.8052 188.507 86.2257 188.783C86.6461 189.058 86.9743 189.449 87.2101 189.955C87.4458 190.46 87.5637 191.057 87.5637 191.744C87.5637 192.438 87.4458 193.038 87.2101 193.547C86.9743 194.053 86.6475 194.445 86.2299 194.723C85.8123 194.999 85.3308 195.136 84.7853 195.136C84.3649 195.136 84.0282 195.067 83.7754 194.928C83.5225 194.786 83.3279 194.625 83.1916 194.446C83.0552 194.264 82.9501 194.114 82.8762 193.994H82.7569V195H81.7853ZM82.774 191.727C82.774 192.222 82.8464 192.658 82.9913 193.036C83.1362 193.411 83.3478 193.705 83.6262 193.918C83.9047 194.128 84.2456 194.233 84.649 194.233C85.0694 194.233 85.4203 194.122 85.7015 193.901C85.9856 193.676 86.1987 193.375 86.3407 192.997C86.4856 192.616 86.5581 192.193 86.5581 191.727C86.5581 191.267 86.487 190.852 86.345 190.483C86.2058 190.111 85.9941 189.817 85.71 189.601C85.4288 189.382 85.0751 189.273 84.649 189.273C84.2399 189.273 83.8961 189.376 83.6177 189.584C83.3393 189.788 83.1291 190.075 82.987 190.445C82.845 190.811 82.774 191.239 82.774 191.727Z" fill="#475467"/>
<path d="M111.469 186.273H112.731L115.697 193.517H115.799L118.765 186.273H120.026V195H119.038V188.369H118.952L116.225 195H115.271L112.543 188.369H112.458V195H111.469V186.273ZM123.935 195.153C123.52 195.153 123.144 195.075 122.806 194.919C122.468 194.76 122.199 194.531 122 194.233C121.801 193.932 121.702 193.568 121.702 193.142C121.702 192.767 121.776 192.463 121.924 192.23C122.071 191.994 122.269 191.81 122.516 191.676C122.763 191.543 123.036 191.443 123.334 191.378C123.635 191.31 123.938 191.256 124.242 191.216C124.64 191.165 124.962 191.126 125.209 191.101C125.459 191.072 125.641 191.026 125.755 190.96C125.871 190.895 125.929 190.781 125.929 190.619V190.585C125.929 190.165 125.814 189.838 125.584 189.605C125.357 189.372 125.012 189.256 124.549 189.256C124.068 189.256 123.692 189.361 123.419 189.571C123.147 189.781 122.955 190.006 122.844 190.244L121.89 189.903C122.06 189.506 122.287 189.196 122.571 188.974C122.858 188.75 123.171 188.594 123.509 188.506C123.85 188.415 124.185 188.369 124.515 188.369C124.725 188.369 124.966 188.395 125.239 188.446C125.515 188.494 125.78 188.595 126.036 188.749C126.294 188.902 126.509 189.134 126.679 189.443C126.85 189.753 126.935 190.168 126.935 190.688V195H125.929V194.114H125.878C125.81 194.256 125.696 194.408 125.537 194.57C125.378 194.732 125.167 194.869 124.902 194.983C124.638 195.097 124.316 195.153 123.935 195.153ZM124.088 194.25C124.486 194.25 124.821 194.172 125.094 194.016C125.37 193.859 125.577 193.658 125.716 193.411C125.858 193.163 125.929 192.903 125.929 192.631V191.71C125.887 191.761 125.793 191.808 125.648 191.851C125.506 191.891 125.341 191.926 125.154 191.957C124.969 191.986 124.789 192.011 124.613 192.034C124.439 192.054 124.299 192.071 124.191 192.085C123.929 192.119 123.685 192.175 123.458 192.251C123.233 192.325 123.051 192.437 122.912 192.588C122.776 192.736 122.708 192.937 122.708 193.193C122.708 193.543 122.837 193.807 123.095 193.986C123.357 194.162 123.688 194.25 124.088 194.25ZM128.771 195V188.455H129.742V189.443H129.81C129.93 189.119 130.146 188.857 130.458 188.655C130.771 188.453 131.123 188.352 131.515 188.352C131.589 188.352 131.681 188.354 131.792 188.357C131.903 188.359 131.986 188.364 132.043 188.369V189.392C132.009 189.384 131.931 189.371 131.809 189.354C131.69 189.334 131.563 189.324 131.43 189.324C131.111 189.324 130.827 189.391 130.577 189.524C130.33 189.655 130.134 189.837 129.989 190.07C129.847 190.3 129.776 190.562 129.776 190.858V195H128.771Z" fill="#475467"/>
<path d="M156.017 195H154.909L158.113 186.273H159.204L162.409 195H161.301L158.693 187.653H158.625L156.017 195ZM156.426 191.591H160.892V192.528H156.426V191.591ZM163.632 197.455V188.455H164.603V189.494H164.723C164.797 189.381 164.899 189.236 165.03 189.06C165.163 188.881 165.353 188.722 165.601 188.582C165.851 188.44 166.189 188.369 166.615 188.369C167.166 188.369 167.652 188.507 168.072 188.783C168.493 189.058 168.821 189.449 169.057 189.955C169.292 190.46 169.41 191.057 169.41 191.744C169.41 192.438 169.292 193.038 169.057 193.547C168.821 194.053 168.494 194.445 168.076 194.723C167.659 194.999 167.177 195.136 166.632 195.136C166.211 195.136 165.875 195.067 165.622 194.928C165.369 194.786 165.174 194.625 165.038 194.446C164.902 194.264 164.797 194.114 164.723 193.994H164.638V197.455H163.632ZM164.621 191.727C164.621 192.222 164.693 192.658 164.838 193.036C164.983 193.411 165.194 193.705 165.473 193.918C165.751 194.128 166.092 194.233 166.496 194.233C166.916 194.233 167.267 194.122 167.548 193.901C167.832 193.676 168.045 193.375 168.187 192.997C168.332 192.616 168.405 192.193 168.405 191.727C168.405 191.267 168.334 190.852 168.192 190.483C168.052 190.111 167.841 189.817 167.557 189.601C167.275 189.382 166.922 189.273 166.496 189.273C166.086 189.273 165.743 189.376 165.464 189.584C165.186 189.788 164.976 190.075 164.834 190.445C164.692 190.811 164.621 191.239 164.621 191.727ZM170.944 195V188.455H171.916V189.443H171.984C172.103 189.119 172.319 188.857 172.632 188.655C172.944 188.453 173.297 188.352 173.689 188.352C173.763 188.352 173.855 188.354 173.966 188.357C174.076 188.359 174.16 188.364 174.217 188.369V189.392C174.183 189.384 174.105 189.371 173.983 189.354C173.863 189.334 173.737 189.324 173.603 189.324C173.285 189.324 173.001 189.391 172.751 189.524C172.504 189.655 172.308 189.837 172.163 190.07C172.021 190.3 171.95 190.562 171.95 190.858V195H170.944Z" fill="#475467"/>
<path d="M197.842 186.273H199.104L202.07 193.517H202.172L205.138 186.273H206.399V195H205.411V188.369H205.325L202.598 195H201.644L198.916 188.369H198.831V195H197.842V186.273ZM210.308 195.153C209.893 195.153 209.517 195.075 209.179 194.919C208.841 194.76 208.572 194.531 208.373 194.233C208.174 193.932 208.075 193.568 208.075 193.142C208.075 192.767 208.149 192.463 208.297 192.23C208.444 191.994 208.642 191.81 208.889 191.676C209.136 191.543 209.409 191.443 209.707 191.378C210.008 191.31 210.311 191.256 210.615 191.216C211.013 191.165 211.335 191.126 211.582 191.101C211.832 191.072 212.014 191.026 212.128 190.96C212.244 190.895 212.302 190.781 212.302 190.619V190.585C212.302 190.165 212.187 189.838 211.957 189.605C211.73 189.372 211.385 189.256 210.922 189.256C210.442 189.256 210.065 189.361 209.792 189.571C209.52 189.781 209.328 190.006 209.217 190.244L208.263 189.903C208.433 189.506 208.66 189.196 208.944 188.974C209.231 188.75 209.544 188.594 209.882 188.506C210.223 188.415 210.558 188.369 210.888 188.369C211.098 188.369 211.339 188.395 211.612 188.446C211.888 188.494 212.153 188.595 212.409 188.749C212.667 188.902 212.882 189.134 213.052 189.443C213.223 189.753 213.308 190.168 213.308 190.688V195H212.302V194.114H212.251C212.183 194.256 212.069 194.408 211.91 194.57C211.751 194.732 211.54 194.869 211.275 194.983C211.011 195.097 210.689 195.153 210.308 195.153ZM210.461 194.25C210.859 194.25 211.194 194.172 211.467 194.016C211.743 193.859 211.95 193.658 212.089 193.411C212.231 193.163 212.302 192.903 212.302 192.631V191.71C212.26 191.761 212.166 191.808 212.021 191.851C211.879 191.891 211.714 191.926 211.527 191.957C211.342 191.986 211.162 192.011 210.986 192.034C210.812 192.054 210.672 192.071 210.564 192.085C210.302 192.119 210.058 192.175 209.831 192.251C209.606 192.325 209.424 192.437 209.285 192.588C209.149 192.736 209.081 192.937 209.081 193.193C209.081 193.543 209.21 193.807 209.469 193.986C209.73 194.162 210.061 194.25 210.461 194.25ZM215.557 197.455C215.386 197.455 215.235 197.44 215.101 197.412C214.967 197.386 214.875 197.361 214.824 197.335L215.08 196.449C215.324 196.511 215.54 196.534 215.727 196.517C215.915 196.5 216.081 196.416 216.226 196.266C216.374 196.118 216.509 195.878 216.631 195.545L216.818 195.034L214.398 188.455H215.489L217.296 193.67H217.364L219.171 188.455H220.261L217.483 195.955C217.358 196.293 217.203 196.572 217.019 196.794C216.834 197.018 216.619 197.185 216.375 197.293C216.134 197.401 215.861 197.455 215.557 197.455Z" fill="#475467"/>
<path d="M247.553 186.273H248.61V192.511C248.61 193.068 248.508 193.541 248.303 193.93C248.098 194.32 247.81 194.615 247.438 194.817C247.066 195.018 246.627 195.119 246.121 195.119C245.644 195.119 245.219 195.033 244.847 194.859C244.475 194.683 244.182 194.433 243.969 194.109C243.756 193.786 243.65 193.401 243.65 192.955H244.689C244.689 193.202 244.75 193.418 244.873 193.602C244.998 193.784 245.168 193.926 245.384 194.028C245.6 194.131 245.846 194.182 246.121 194.182C246.425 194.182 246.684 194.118 246.897 193.99C247.11 193.862 247.272 193.675 247.383 193.428C247.496 193.178 247.553 192.872 247.553 192.511V186.273ZM254.716 192.324V188.455H255.722V195H254.716V193.892H254.648C254.495 194.224 254.256 194.507 253.932 194.74C253.608 194.97 253.199 195.085 252.705 195.085C252.296 195.085 251.932 194.996 251.614 194.817C251.296 194.635 251.046 194.362 250.864 193.999C250.682 193.632 250.591 193.17 250.591 192.614V188.455H251.597V192.545C251.597 193.023 251.731 193.403 251.998 193.688C252.267 193.972 252.611 194.114 253.029 194.114C253.279 194.114 253.533 194.05 253.792 193.922C254.053 193.794 254.272 193.598 254.448 193.334C254.627 193.07 254.716 192.733 254.716 192.324ZM258.57 191.062V195H257.564V188.455H258.536V189.477H258.621C258.774 189.145 259.007 188.878 259.32 188.676C259.632 188.472 260.036 188.369 260.53 188.369C260.973 188.369 261.361 188.46 261.693 188.642C262.026 188.821 262.284 189.094 262.469 189.46C262.653 189.824 262.746 190.284 262.746 190.841V195H261.74V190.909C261.74 190.395 261.607 189.994 261.34 189.707C261.073 189.418 260.706 189.273 260.24 189.273C259.919 189.273 259.632 189.342 259.379 189.482C259.129 189.621 258.932 189.824 258.787 190.091C258.642 190.358 258.57 190.682 258.57 191.062Z" fill="#475467"/>
<path d="M290.821 186.273H291.877V192.511C291.877 193.068 291.775 193.541 291.571 193.93C291.366 194.32 291.078 194.615 290.706 194.817C290.333 195.018 289.894 195.119 289.389 195.119C288.911 195.119 288.487 195.033 288.115 194.859C287.742 194.683 287.45 194.433 287.237 194.109C287.024 193.786 286.917 193.401 286.917 192.955H287.957C287.957 193.202 288.018 193.418 288.14 193.602C288.265 193.784 288.436 193.926 288.652 194.028C288.867 194.131 289.113 194.182 289.389 194.182C289.693 194.182 289.951 194.118 290.164 193.99C290.377 193.862 290.539 193.675 290.65 193.428C290.764 193.178 290.821 192.872 290.821 192.511V186.273ZM297.984 192.324V188.455H298.99V195H297.984V193.892H297.916C297.762 194.224 297.524 194.507 297.2 194.74C296.876 194.97 296.467 195.085 295.973 195.085C295.563 195.085 295.2 194.996 294.882 194.817C294.563 194.635 294.313 194.362 294.132 193.999C293.95 193.632 293.859 193.17 293.859 192.614V188.455H294.865V192.545C294.865 193.023 294.998 193.403 295.265 193.688C295.535 193.972 295.879 194.114 296.296 194.114C296.546 194.114 296.801 194.05 297.059 193.922C297.321 193.794 297.539 193.598 297.715 193.334C297.894 193.07 297.984 192.733 297.984 192.324ZM301.837 186.273V195H300.832V186.273H301.837Z" fill="#475467"/>
<path d="M326.99 195H325.883L329.087 186.273H330.178L333.383 195H332.275L329.667 187.653H329.598L326.99 195ZM327.4 191.591H331.865V192.528H327.4V191.591ZM338.731 192.324V188.455H339.736V195H338.731V193.892H338.662C338.509 194.224 338.27 194.507 337.946 194.74C337.623 194.97 337.213 195.085 336.719 195.085C336.31 195.085 335.946 194.996 335.628 194.817C335.31 194.635 335.06 194.362 334.878 193.999C334.696 193.632 334.606 193.17 334.606 192.614V188.455H335.611V192.545C335.611 193.023 335.745 193.403 336.012 193.688C336.282 193.972 336.625 194.114 337.043 194.114C337.293 194.114 337.547 194.05 337.806 193.922C338.067 193.794 338.286 193.598 338.462 193.334C338.641 193.07 338.731 192.733 338.731 192.324ZM344.22 197.591C343.734 197.591 343.317 197.528 342.967 197.403C342.618 197.281 342.327 197.119 342.094 196.918C341.864 196.719 341.68 196.506 341.544 196.278L342.345 195.716C342.436 195.835 342.551 195.972 342.69 196.125C342.83 196.281 343.02 196.416 343.261 196.53C343.506 196.646 343.825 196.705 344.22 196.705C344.749 196.705 345.185 196.577 345.528 196.321C345.872 196.065 346.044 195.665 346.044 195.119V193.79H345.959C345.885 193.909 345.78 194.057 345.644 194.233C345.51 194.406 345.317 194.561 345.064 194.697C344.814 194.831 344.476 194.898 344.05 194.898C343.521 194.898 343.047 194.773 342.626 194.523C342.209 194.273 341.878 193.909 341.634 193.432C341.392 192.955 341.271 192.375 341.271 191.693C341.271 191.023 341.389 190.439 341.625 189.942C341.861 189.442 342.189 189.055 342.609 188.783C343.03 188.507 343.516 188.369 344.067 188.369C344.493 188.369 344.831 188.44 345.081 188.582C345.334 188.722 345.527 188.881 345.661 189.06C345.797 189.236 345.902 189.381 345.976 189.494H346.078V188.455H347.05V195.188C347.05 195.75 346.922 196.207 346.666 196.56C346.413 196.915 346.072 197.175 345.644 197.339C345.217 197.507 344.743 197.591 344.22 197.591ZM344.186 193.994C344.59 193.994 344.93 193.902 345.209 193.717C345.487 193.533 345.699 193.267 345.844 192.92C345.989 192.574 346.061 192.159 346.061 191.676C346.061 191.205 345.99 190.788 345.848 190.428C345.706 190.067 345.496 189.784 345.217 189.58C344.939 189.375 344.595 189.273 344.186 189.273C343.76 189.273 343.405 189.381 343.121 189.597C342.84 189.812 342.628 190.102 342.486 190.466C342.347 190.83 342.277 191.233 342.277 191.676C342.277 192.131 342.348 192.533 342.49 192.882C342.635 193.229 342.848 193.501 343.129 193.7C343.413 193.896 343.766 193.994 344.186 193.994Z" fill="#475467"/>
<path d="M376.31 188.455C376.258 188.023 376.051 187.688 375.687 187.449C375.324 187.21 374.878 187.091 374.349 187.091C373.963 187.091 373.625 187.153 373.335 187.278C373.048 187.403 372.824 187.575 372.662 187.794C372.503 188.013 372.423 188.261 372.423 188.54C372.423 188.773 372.479 188.973 372.589 189.141C372.703 189.305 372.848 189.443 373.024 189.554C373.2 189.662 373.385 189.751 373.578 189.822C373.771 189.891 373.949 189.946 374.111 189.989L374.997 190.227C375.224 190.287 375.477 190.369 375.756 190.474C376.037 190.58 376.305 190.723 376.561 190.905C376.819 191.084 377.033 191.314 377.2 191.595C377.368 191.876 377.452 192.222 377.452 192.631C377.452 193.102 377.328 193.528 377.081 193.909C376.837 194.29 376.479 194.592 376.007 194.817C375.538 195.041 374.969 195.153 374.298 195.153C373.673 195.153 373.132 195.053 372.675 194.851C372.22 194.649 371.862 194.368 371.601 194.007C371.342 193.646 371.196 193.227 371.162 192.75H372.253C372.281 193.08 372.392 193.352 372.585 193.568C372.781 193.781 373.028 193.94 373.327 194.045C373.628 194.148 373.952 194.199 374.298 194.199C374.702 194.199 375.064 194.134 375.385 194.003C375.706 193.869 375.96 193.685 376.148 193.449C376.335 193.21 376.429 192.932 376.429 192.614C376.429 192.324 376.348 192.088 376.186 191.906C376.024 191.724 375.811 191.577 375.547 191.463C375.283 191.349 374.997 191.25 374.69 191.165L373.616 190.858C372.935 190.662 372.395 190.382 371.997 190.018C371.599 189.655 371.4 189.179 371.4 188.591C371.4 188.102 371.533 187.676 371.797 187.312C372.064 186.946 372.422 186.662 372.871 186.46C373.322 186.256 373.827 186.153 374.383 186.153C374.946 186.153 375.446 186.254 375.883 186.456C376.321 186.655 376.667 186.928 376.923 187.274C377.182 187.621 377.318 188.014 377.332 188.455H376.31ZM381.797 195.136C381.166 195.136 380.622 194.997 380.165 194.719C379.71 194.438 379.36 194.045 379.112 193.543C378.868 193.037 378.746 192.449 378.746 191.778C378.746 191.108 378.868 190.517 379.112 190.006C379.36 189.491 379.703 189.091 380.144 188.804C380.587 188.514 381.104 188.369 381.695 188.369C382.036 188.369 382.372 188.426 382.705 188.54C383.037 188.653 383.34 188.838 383.612 189.094C383.885 189.347 384.102 189.682 384.264 190.099C384.426 190.517 384.507 191.031 384.507 191.642V192.068H379.462V191.199H383.485C383.485 190.83 383.411 190.5 383.263 190.21C383.118 189.92 382.911 189.692 382.641 189.524C382.374 189.357 382.058 189.273 381.695 189.273C381.294 189.273 380.948 189.372 380.655 189.571C380.365 189.767 380.142 190.023 379.986 190.338C379.83 190.653 379.752 190.991 379.752 191.352V191.932C379.752 192.426 379.837 192.845 380.007 193.189C380.181 193.53 380.421 193.79 380.727 193.969C381.034 194.145 381.391 194.233 381.797 194.233C382.061 194.233 382.3 194.196 382.513 194.122C382.729 194.045 382.915 193.932 383.071 193.781C383.227 193.628 383.348 193.437 383.433 193.21L384.405 193.483C384.303 193.812 384.131 194.102 383.889 194.352C383.648 194.599 383.35 194.793 382.995 194.932C382.639 195.068 382.24 195.136 381.797 195.136ZM386.037 197.455V188.455H387.009V189.494H387.128C387.202 189.381 387.304 189.236 387.435 189.06C387.568 188.881 387.759 188.722 388.006 188.582C388.256 188.44 388.594 188.369 389.02 188.369C389.571 188.369 390.057 188.507 390.477 188.783C390.898 189.058 391.226 189.449 391.462 189.955C391.698 190.46 391.816 191.057 391.816 191.744C391.816 192.438 391.698 193.038 391.462 193.547C391.226 194.053 390.899 194.445 390.482 194.723C390.064 194.999 389.583 195.136 389.037 195.136C388.617 195.136 388.28 195.067 388.027 194.928C387.774 194.786 387.58 194.625 387.443 194.446C387.307 194.264 387.202 194.114 387.128 193.994H387.043V197.455H386.037ZM387.026 191.727C387.026 192.222 387.098 192.658 387.243 193.036C387.388 193.411 387.6 193.705 387.878 193.918C388.156 194.128 388.497 194.233 388.901 194.233C389.321 194.233 389.672 194.122 389.953 193.901C390.237 193.676 390.451 193.375 390.593 192.997C390.737 192.616 390.81 192.193 390.81 191.727C390.81 191.267 390.739 190.852 390.597 190.483C390.458 190.111 390.246 189.817 389.962 189.601C389.681 189.382 389.327 189.273 388.901 189.273C388.492 189.273 388.148 189.376 387.87 189.584C387.591 189.788 387.381 190.075 387.239 190.445C387.097 190.811 387.026 191.239 387.026 191.727Z" fill="#475467"/>
<path d="M423.455 190.636C423.455 191.557 423.289 192.352 422.957 193.023C422.624 193.693 422.168 194.21 421.589 194.574C421.009 194.938 420.347 195.119 419.603 195.119C418.859 195.119 418.197 194.938 417.617 194.574C417.038 194.21 416.582 193.693 416.249 193.023C415.917 192.352 415.751 191.557 415.751 190.636C415.751 189.716 415.917 188.92 416.249 188.25C416.582 187.58 417.038 187.062 417.617 186.699C418.197 186.335 418.859 186.153 419.603 186.153C420.347 186.153 421.009 186.335 421.589 186.699C422.168 187.062 422.624 187.58 422.957 188.25C423.289 188.92 423.455 189.716 423.455 190.636ZM422.432 190.636C422.432 189.881 422.306 189.243 422.053 188.723C421.803 188.203 421.464 187.81 421.035 187.543C420.609 187.276 420.131 187.142 419.603 187.142C419.074 187.142 418.596 187.276 418.167 187.543C417.741 187.81 417.401 188.203 417.148 188.723C416.898 189.243 416.773 189.881 416.773 190.636C416.773 191.392 416.898 192.03 417.148 192.55C417.401 193.07 417.741 193.463 418.167 193.73C418.596 193.997 419.074 194.131 419.603 194.131C420.131 194.131 420.609 193.997 421.035 193.73C421.464 193.463 421.803 193.07 422.053 192.55C422.306 192.03 422.432 191.392 422.432 190.636ZM427.755 195.136C427.141 195.136 426.613 194.991 426.17 194.702C425.726 194.412 425.386 194.013 425.147 193.504C424.908 192.996 424.789 192.415 424.789 191.761C424.789 191.097 424.911 190.51 425.155 190.001C425.403 189.49 425.746 189.091 426.187 188.804C426.63 188.514 427.147 188.369 427.738 188.369C428.198 188.369 428.613 188.455 428.982 188.625C429.351 188.795 429.654 189.034 429.89 189.341C430.126 189.648 430.272 190.006 430.329 190.415H429.323C429.246 190.116 429.076 189.852 428.812 189.622C428.55 189.389 428.198 189.273 427.755 189.273C427.363 189.273 427.019 189.375 426.724 189.58C426.431 189.781 426.202 190.067 426.038 190.436C425.876 190.803 425.795 191.233 425.795 191.727C425.795 192.233 425.874 192.673 426.033 193.048C426.195 193.423 426.422 193.714 426.715 193.922C427.011 194.129 427.357 194.233 427.755 194.233C428.016 194.233 428.253 194.188 428.466 194.097C428.68 194.006 428.86 193.875 429.008 193.705C429.155 193.534 429.261 193.33 429.323 193.091H430.329C430.272 193.477 430.131 193.825 429.907 194.135C429.685 194.442 429.391 194.686 429.025 194.868C428.661 195.047 428.238 195.136 427.755 195.136ZM434.645 188.455V189.307H431.253V188.455H434.645ZM432.242 186.886H433.248V193.125C433.248 193.409 433.289 193.622 433.371 193.764C433.457 193.903 433.564 193.997 433.695 194.045C433.829 194.091 433.969 194.114 434.117 194.114C434.228 194.114 434.319 194.108 434.39 194.097C434.461 194.082 434.518 194.071 434.56 194.062L434.765 194.966C434.697 194.991 434.601 195.017 434.479 195.043C434.357 195.071 434.202 195.085 434.015 195.085C433.731 195.085 433.452 195.024 433.18 194.902C432.91 194.78 432.685 194.594 432.506 194.344C432.33 194.094 432.242 193.778 432.242 193.398V186.886Z" fill="#475467"/>
<path d="M465.975 186.273V195H464.953L460.197 188.148H460.112V195H459.055V186.273H460.078L464.85 193.142H464.936V186.273H465.975ZM470.613 195.136C470.022 195.136 469.503 194.996 469.057 194.714C468.614 194.433 468.268 194.04 468.018 193.534C467.77 193.028 467.647 192.437 467.647 191.761C467.647 191.08 467.77 190.484 468.018 189.976C468.268 189.467 468.614 189.072 469.057 188.791C469.503 188.51 470.022 188.369 470.613 188.369C471.204 188.369 471.721 188.51 472.164 188.791C472.61 189.072 472.956 189.467 473.204 189.976C473.454 190.484 473.579 191.08 473.579 191.761C473.579 192.437 473.454 193.028 473.204 193.534C472.956 194.04 472.61 194.433 472.164 194.714C471.721 194.996 471.204 195.136 470.613 195.136ZM470.613 194.233C471.062 194.233 471.431 194.118 471.721 193.888C472.01 193.658 472.225 193.355 472.364 192.98C472.503 192.605 472.573 192.199 472.573 191.761C472.573 191.324 472.503 190.916 472.364 190.538C472.225 190.161 472.01 189.855 471.721 189.622C471.431 189.389 471.062 189.273 470.613 189.273C470.164 189.273 469.795 189.389 469.505 189.622C469.215 189.855 469.001 190.161 468.861 190.538C468.722 190.916 468.653 191.324 468.653 191.761C468.653 192.199 468.722 192.605 468.861 192.98C469.001 193.355 469.215 193.658 469.505 193.888C469.795 194.118 470.164 194.233 470.613 194.233ZM480.232 188.455L477.811 195H476.789L474.368 188.455H475.459L477.266 193.67H477.334L479.141 188.455H480.232Z" fill="#475467"/>
<path d="M507.094 195H504.401V186.273H507.213C508.06 186.273 508.784 186.447 509.386 186.797C509.989 187.143 510.45 187.642 510.771 188.293C511.092 188.94 511.253 189.716 511.253 190.619C511.253 191.528 511.091 192.311 510.767 192.967C510.443 193.621 509.972 194.124 509.352 194.476C508.733 194.825 507.98 195 507.094 195ZM505.457 194.062H507.026C507.747 194.062 508.345 193.923 508.82 193.645C509.294 193.366 509.648 192.97 509.881 192.456C510.114 191.942 510.23 191.33 510.23 190.619C510.23 189.915 510.115 189.308 509.885 188.8C509.655 188.288 509.311 187.896 508.854 187.624C508.396 187.348 507.827 187.21 507.145 187.21H505.457V194.062ZM515.634 195.136C515.003 195.136 514.459 194.997 514.001 194.719C513.547 194.438 513.196 194.045 512.949 193.543C512.705 193.037 512.582 192.449 512.582 191.778C512.582 191.108 512.705 190.517 512.949 190.006C513.196 189.491 513.54 189.091 513.98 188.804C514.423 188.514 514.94 188.369 515.531 188.369C515.872 188.369 516.209 188.426 516.541 188.54C516.874 188.653 517.176 188.838 517.449 189.094C517.722 189.347 517.939 189.682 518.101 190.099C518.263 190.517 518.344 191.031 518.344 191.642V192.068H513.298V191.199H517.321C517.321 190.83 517.247 190.5 517.099 190.21C516.955 189.92 516.747 189.692 516.477 189.524C516.21 189.357 515.895 189.273 515.531 189.273C515.131 189.273 514.784 189.372 514.491 189.571C514.202 189.767 513.979 190.023 513.822 190.338C513.666 190.653 513.588 190.991 513.588 191.352V191.932C513.588 192.426 513.673 192.845 513.844 193.189C514.017 193.53 514.257 193.79 514.564 193.969C514.871 194.145 515.227 194.233 515.634 194.233C515.898 194.233 516.136 194.196 516.349 194.122C516.565 194.045 516.751 193.932 516.908 193.781C517.064 193.628 517.185 193.437 517.27 193.21L518.241 193.483C518.139 193.812 517.967 194.102 517.726 194.352C517.484 194.599 517.186 194.793 516.831 194.932C516.476 195.068 516.077 195.136 515.634 195.136ZM522.533 195.136C521.919 195.136 521.391 194.991 520.947 194.702C520.504 194.412 520.163 194.013 519.925 193.504C519.686 192.996 519.567 192.415 519.567 191.761C519.567 191.097 519.689 190.51 519.933 190.001C520.18 189.49 520.524 189.091 520.964 188.804C521.408 188.514 521.925 188.369 522.516 188.369C522.976 188.369 523.391 188.455 523.76 188.625C524.129 188.795 524.432 189.034 524.668 189.341C524.903 189.648 525.05 190.006 525.107 190.415H524.101C524.024 190.116 523.854 189.852 523.589 189.622C523.328 189.389 522.976 189.273 522.533 189.273C522.141 189.273 521.797 189.375 521.501 189.58C521.209 189.781 520.98 190.067 520.815 190.436C520.653 190.803 520.572 191.233 520.572 191.727C520.572 192.233 520.652 192.673 520.811 193.048C520.973 193.423 521.2 193.714 521.493 193.922C521.788 194.129 522.135 194.233 522.533 194.233C522.794 194.233 523.031 194.188 523.244 194.097C523.457 194.006 523.638 193.875 523.786 193.705C523.933 193.534 524.038 193.33 524.101 193.091H525.107C525.05 193.477 524.909 193.825 524.685 194.135C524.463 194.442 524.169 194.686 523.803 194.868C523.439 195.047 523.016 195.136 522.533 195.136Z" fill="#475467"/>
<g clip-path="url(#clip0_15_31224)">
<path d="M20 54C20 50.6863 22.6863 48 26 48H46C49.3137 48 52 50.6863 52 54V174H20V54Z" fill="#D6BBFB"/>
<path d="M20 90.75C20 87.4363 22.6863 84.75 26 84.75H46C49.3137 84.75 52 87.4363 52 90.75V174H20V90.75Z" fill="#9E77ED"/>
<path d="M20 132.75C20 129.436 22.6863 126.75 26 126.75H46C49.3137 126.75 52 129.436 52 132.75V174H20V132.75Z" fill="#6941C6"/>
<path d="M63.4546 22C63.4546 18.6863 66.1409 16 69.4546 16H89.4546C92.7683 16 95.4546 18.6863 95.4546 22V174H63.4546V22Z" fill="#D6BBFB"/>
<path d="M63.4546 68.0833C63.4546 64.7696 66.1409 62.0833 69.4546 62.0833H89.4546C92.7683 62.0833 95.4546 64.7696 95.4546 68.0833V174H63.4546V68.0833Z" fill="#9E77ED"/>
<path d="M63.4546 120.75C63.4546 117.436 66.1409 114.75 69.4546 114.75H89.4546C92.7683 114.75 95.4546 117.436 95.4546 120.75V174H63.4546V120.75Z" fill="#6941C6"/>
<path d="M106.909 86C106.909 82.6863 109.595 80 112.909 80H132.909C136.223 80 138.909 82.6863 138.909 86V174H106.909V86Z" fill="#D6BBFB"/>
<path d="M106.909 113.417C106.909 110.103 109.595 107.417 112.909 107.417H132.909C136.223 107.417 138.909 110.103 138.909 113.417V174H106.909V113.417Z" fill="#9E77ED"/>
<path d="M106.909 144.75C106.909 141.436 109.595 138.75 112.909 138.75H132.909C136.223 138.75 138.909 141.436 138.909 144.75V174H106.909V144.75Z" fill="#6941C6"/>
<path d="M150.364 46C150.364 42.6863 153.05 40 156.364 40H176.364C179.677 40 182.364 42.6863 182.364 46V174H150.364V46Z" fill="#D6BBFB"/>
<path d="M150.364 85.0833C150.364 81.7696 153.05 79.0833 156.364 79.0833H176.364C179.677 79.0833 182.364 81.7696 182.364 85.0833V174H150.364V85.0833Z" fill="#9E77ED"/>
<path d="M150.364 129.75C150.364 126.436 153.05 123.75 156.364 123.75H176.364C179.677 123.75 182.364 126.436 182.364 129.75V174H150.364V129.75Z" fill="#6941C6"/>
<path d="M193.818 86C193.818 82.6863 196.505 80 199.818 80H219.818C223.132 80 225.818 82.6863 225.818 86V174H193.818V86Z" fill="#D6BBFB"/>
<path d="M193.818 113.417C193.818 110.103 196.505 107.417 199.818 107.417H219.818C223.132 107.417 225.818 110.103 225.818 113.417V174H193.818V113.417Z" fill="#9E77ED"/>
<path d="M193.818 144.75C193.818 141.436 196.505 138.75 199.818 138.75H219.818C223.132 138.75 225.818 141.436 225.818 144.75V174H193.818V144.75Z" fill="#6941C6"/>
<path d="M237.273 30C237.273 26.6863 239.959 24 243.273 24H263.273C266.587 24 269.273 26.6863 269.273 30V174H237.273V30Z" fill="#D6BBFB"/>
<path d="M237.273 73.75C237.273 70.4363 239.959 67.75 243.273 67.75H263.273C266.587 67.75 269.273 70.4363 269.273 73.75V174H237.273V73.75Z" fill="#9E77ED"/>
<path d="M237.273 123.75C237.273 120.436 239.959 117.75 243.273 117.75H263.273C266.587 117.75 269.273 120.436 269.273 123.75V174H237.273V123.75Z" fill="#6941C6"/>
<path d="M280.727 54C280.727 50.6863 283.413 48 286.727 48H306.727C310.041 48 312.727 50.6863 312.727 54V174H280.727V54Z" fill="#D6BBFB"/>
<path d="M280.727 90.75C280.727 87.4363 283.413 84.75 286.727 84.75H306.727C310.041 84.75 312.727 87.4363 312.727 90.75V174H280.727V90.75Z" fill="#9E77ED"/>
<path d="M280.727 132.75C280.727 129.436 283.413 126.75 286.727 126.75H306.727C310.041 126.75 312.727 129.436 312.727 132.75V174H280.727V132.75Z" fill="#6941C6"/>
<path d="M324.182 46C324.182 42.6863 326.868 40 330.182 40H350.182C353.495 40 356.182 42.6863 356.182 46V174H324.182V46Z" fill="#D6BBFB"/>
<path d="M324.182 85.0833C324.182 81.7696 326.868 79.0833 330.182 79.0833H350.182C353.495 79.0833 356.182 81.7696 356.182 85.0833V174H324.182V85.0833Z" fill="#9E77ED"/>
<path d="M324.182 129.75C324.182 126.436 326.868 123.75 330.182 123.75H350.182C353.495 123.75 356.182 126.436 356.182 129.75V174H324.182V129.75Z" fill="#6941C6"/>
<path d="M367.636 54C367.636 50.6863 370.323 48 373.636 48H393.636C396.95 48 399.636 50.6863 399.636 54V174H367.636V54Z" fill="#D6BBFB"/>
<path d="M367.636 90.75C367.636 87.4363 370.323 84.75 373.636 84.75H393.636C396.95 84.75 399.636 87.4363 399.636 90.75V174H367.636V90.75Z" fill="#9E77ED"/>
<path d="M367.636 132.75C367.636 129.436 370.323 126.75 373.636 126.75H393.636C396.95 126.75 399.636 129.436 399.636 132.75V174H367.636V132.75Z" fill="#6941C6"/>
<path d="M411.091 38C411.091 34.6863 413.777 32 417.091 32H437.091C440.405 32 443.091 34.6863 443.091 38V174H411.091V38Z" fill="#D6BBFB"/>
<path d="M411.091 79.4167C411.091 76.103 413.777 73.4167 417.091 73.4167H437.091C440.405 73.4167 443.091 76.103 443.091 79.4167V174H411.091V79.4167Z" fill="#9E77ED"/>
<path d="M411.091 126.75C411.091 123.436 413.777 120.75 417.091 120.75H437.091C440.405 120.75 443.091 123.436 443.091 126.75V174H411.091V126.75Z" fill="#6941C6"/>
<path d="M454.545 22C454.545 18.6863 457.232 16 460.545 16H480.545C483.859 16 486.545 18.6863 486.545 22V174H454.545V22Z" fill="#D6BBFB"/>
<path d="M454.545 68.0833C454.545 64.7696 457.232 62.0833 460.545 62.0833H480.545C483.859 62.0833 486.545 64.7696 486.545 68.0833V174H454.545V68.0833Z" fill="#9E77ED"/>
<path d="M454.545 120.75C454.545 117.436 457.232 114.75 460.545 114.75H480.545C483.859 114.75 486.545 117.436 486.545 120.75V174H454.545V120.75Z" fill="#6941C6"/>
<path d="M498 62C498 58.6863 500.686 56 504 56H524C527.314 56 530 58.6863 530 62V174H498V62Z" fill="#D6BBFB"/>
<path d="M498 96.4167C498 93.103 500.686 90.4167 504 90.4167H524C527.314 90.4167 530 93.103 530 96.4167V174H498V96.4167Z" fill="#9E77ED"/>
<path d="M498 135.75C498 132.436 500.686 129.75 504 129.75H524C527.314 129.75 530 132.436 530 135.75V174H498V135.75Z" fill="#6941C6"/>
</g>
<defs>
<clipPath id="clip0_15_31224">
<rect width="550" height="174" fill="white"/>
</clipPath>
</defs>
</svg>
