<svg width="26" height="26" viewBox="0 0 26 26" fill="none" xmlns="http://www.w3.org/2000/svg">
<path d="M11.2493 14.7501L23.4993 2.50006M11.3981 15.1328L14.4643 23.0171C14.7344 23.7117 14.8694 24.059 15.064 24.1604C15.2327 24.2483 15.4337 24.2484 15.6025 24.1607C15.7972 24.0595 15.9327 23.7124 16.2036 23.0182L23.8923 3.31579C24.1369 2.68908 24.2592 2.37573 24.1923 2.1755C24.1342 2.00161 23.9977 1.86514 23.8238 1.80705C23.6236 1.74016 23.3103 1.86245 22.6835 2.10702L2.98118 9.79575C2.28692 10.0667 1.9398 10.2021 1.83864 10.3969C1.75094 10.5657 1.75106 10.7666 1.83895 10.9353C1.94034 11.1299 2.28763 11.265 2.9822 11.5351L10.8665 14.6012C11.0075 14.656 11.078 14.6835 11.1374 14.7258C11.19 14.7633 11.236 14.8093 11.2735 14.862C11.3159 14.9213 11.3433 14.9918 11.3981 15.1328Z" stroke="#7F56D9" stroke-width="2" stroke-linecap="round" stroke-linejoin="round"/>
</svg>
